<?xml version="1.0" encoding="utf-8"?>
<!-- Generator: Adobe Illustrator 18.1.1, SVG Export Plug-In . SVG Version: 6.00 Build 0)  -->
<svg version="1.1" id="Layer_1" xmlns="http://www.w3.org/2000/svg" xmlns:xlink="http://www.w3.org/1999/xlink" x="0px" y="0px"
	 viewBox="0 0 2983.5 2306" enable-background="new 0 0 2983.5 2306" xml:space="preserve">
<g>
	<path fill="#E82037" d="M1824.1,375.3c63.3-1,130.3-1.6,131.4-1.6c9.9,0,19.9-2.6,28.3-6.3c22.5-11,38.2-34,37.7-60.7
		c0-36.6-30.4-66.5-67-66.5c-2.6,0-29.3,0-64.4,0.5C1886.4,292,1862.9,340.2,1824.1,375.3z"/>
	<path fill="#4F335F" d="M978.4,774.6l-14.7,36.1L914,795c-7.9,2.1-15.2,4.2-23,5.2c-11,13.1-24.1,30.4-36.6,48.7
		c-2.1-8.4-6.3-15.7-11-22.5c5.8-8.4,11.5-16.2,16.7-23.6c-49.2,1-96.8-15.7-135-46.1c-7.3,11.5-14.7,23-21.5,34.5
		c-18.3-1.6-36.1-2.6-50.2-3.7c0.5,49.2-15.7,96.8-46.6,135c40.8,1.6,141.3,7.3,170.6,12c6.3,1,12.6,1,18.8,0l153.9,321.4
		c13.1,27.7,30.4,51.8,50.2,71.7c1,2.6,2.1,5.2,3.1,7.9l34.5,72.2h0.5c0.5,1,0.5,2.1,1,3.1l304.1,634.3
		c20.9,43.4,72.7,61.2,115.7,40.8c43.4-20.9,61.2-72.7,40.8-115.7l-303.6-634.3c-0.5-1-1-2.1-1.6-3.1l11.5-5.8c0.5,1,0.5,2.1,1,3.1
		l304.1,634.9c20.9,43.4,72.7,61.8,115.7,40.8l0,0c43.4-20.9,61.8-72.7,40.8-115.7l-304.1-634.3c-0.5-1-1-2.1-1.6-3.1l1-0.5
		l-39.3-82.2c0,0,4.7-25.1-27.2-92.6c-17.3-36.1-78-172.7-78-172.7L1149,757.3c-1,0-141.3-7.9-141.3-7.9L978.4,774.6z"/>
	<path fill="#FAA51D" d="M571.7,964.6l-22,42.9L512,996c-44.5,53.4-97.3,118.3-98.4,119.3c-7.9,9.4-17.3,16.7-28.3,22
		c-12,5.8-25.1,8.4-38.2,7.9v0.5c-91.1-21.5-190-86.4-228.2-116.7c-31.9-25.1-78-19.9-103.1,11.5c-25.1,31.9-19.9,78,12,103.1
		c23,18.3,231.9,179.5,418.2,152.8c10.5-1.6,20.9-3.7,31.4-6.8c20.4,40.3,60.2,117.8,72.7,144.5c32.4,67.5,55,79,55,79l39.3,82.2
		l1-0.5c0.5,1,0.5,2.1,1,3.1l304.1,634.3c20.9,43.4,72.7,61.8,115.7,40.8c43.4-20.9,61.2-72.7,40.8-115.7L803,1523
		c-0.5-1-1-2.1-1.6-3.1l12-5.8c0.5,1,0.5,2.1,1,3.1l304.1,634.3c20.9,43.4,72.7,61.8,115.7,40.8c43.4-20.9,61.8-72.7,40.8-115.7
		L971,1442.4c-0.5-1-1-2.1-2.1-3.1l0,0l-34.5-72.2c-1-2.6-2.6-5.2-4.2-7.3c-3.1-27.7-11.5-56.5-24.6-83.7l-157-327.1
		c-27.2,15.7-141.3-5.2-153.9-4.7C589,949.4,578,959.9,571.7,964.6z"/>
	<path fill="#4F335F" d="M373.9,1117.9c8.9-4.2,16.7-10.5,23.6-18.3c0.5-1,42.9-52.9,84.3-102.6c-52.9,9.4-107.3-2.1-151.3-30.9
		c-20.9,25.6-37.2,45-38.7,47.1c-23.6,29.3-19.4,72.2,9.9,96.3C322,1126.3,350.3,1128.9,373.9,1117.9z"/>
	<circle fill="#D5AD76" cx="860.6" cy="595.6" r="189.5"/>
	<circle fill="#E3B77A" cx="449.2" cy="792.9" r="189.5"/>
	<path fill="#E82037" d="M1400.2,579.9l-14.7,36.1l-49.7-15.7c-7.9,2.1-15.2,4.2-23,5.2c-11,13.1-24.1,30.4-36.6,48.7
		c-2.1-8.4-6.3-15.7-11-22.5c5.8-8.4,11.5-16.2,16.7-23.6c-49.2,1-96.8-15.7-135-46.1c-7.3,11.5-14.7,23-21.5,34.5
		c-18.3-1.6-36.1-2.6-50.2-3.7c0.5,49.2-15.7,96.8-46.6,135c40.8,1.6,141.3,7.3,170.6,12c6.3,1,12.6,1,18.8,0l153.9,321.4
		c13.1,27.7,30.4,51.8,50.2,71.7c1,2.6,2.1,5.2,3.1,7.9l34.5,72.2h0.5c0.5,1,0.5,2.1,1,3.1l304.1,634.3
		c20.9,43.4,72.7,61.2,115.7,40.8c43.4-20.9,61.8-72.7,40.8-115.7l-304.1-634.3c-0.5-1-1-2.1-1.6-3.1l11.5-5.8c0.5,1,0.5,2.1,1,3.1
		l304.1,634.9c20.9,43.4,72.7,61.8,115.7,40.8c43.4-20.9,61.8-72.7,40.8-115.7l-304.1-634.3c-0.5-1-1-2.1-1.6-3.1l1-0.5l-39.3-82.2
		c0,0,4.7-25.1-27.2-92.6c-17.3-36.1-78-172.7-78-172.7l-70.1-147.6c-1,0-141.3-7.9-141.3-7.9L1400.2,579.9z"/>
	<circle fill="#E5C190" cx="1282.4" cy="400.9" r="189.5"/>
	<circle fill="#AB8E64" cx="1698.5" cy="204.1" r="189.5"/>
	<path fill="#394DA0" d="M2175.3,0c-40.8,0-73.8,32.4-73.8,72.7c-0.5,53.4-13.6,191-65.4,275.3c-7.9,10.5-17.8,19.4-29.8,25.1
		c-11,5.2-22.5,7.9-35.1,7.9c-1,0-85.3,0.5-154.4,1.6l-14.7,36.1l-49.7-15.7c-7.9,2.1-15.7,4.2-23,5.2c-11,13.1-24.1,30.4-36.6,48.7
		c-2.1-8.4-6.3-15.7-11-22.5c5.8-8.4,11.5-16.2,16.7-23.6c-49.2,1-96.8-15.7-135-46.1c-7.3,11.5-14.7,23-21.5,34.5
		c-18.3-1.6-36.1-2.6-50.2-3.7c0.5,49.2-15.7,96.8-46.6,135c40.8,1.6,141.3,7.3,170.6,12c6.3,1,12.6,1,18.8,0l153.9,321.4
		c13.1,27.7,30.4,51.8,49.7,71.7c1,2.6,2.1,5.2,3.1,7.9l34.5,72.2h0.5c0.5,1,0.5,2.1,1,3.1l304.1,635.4
		c20.9,43.4,72.7,61.2,115.7,40.8c43.4-20.9,61.8-72.7,40.8-115.7L2034,945.2c-0.5-1-1-2.1-1.6-3.1l11.5-5.8c0.5,1,0.5,2.1,1,3.1
		l304.1,634.3c20.9,43.4,72.7,61.8,115.7,40.8l0,0c43.4-20.9,61.8-72.7,40.8-115.7l-304.1-634.3c-0.5-1-1-2.1-1.6-3.1l1-0.5
		l-39.3-82.2c0,0,4.7-25.1-27.2-92.6c-14.1-29.3-56.5-124-72.2-159.1c7.3-4.7,14.7-9.4,22-15.2h0.5v-0.5
		c6.8-5.2,13.6-10.5,19.9-16.7c137.1-128.2,142.9-391.5,142.9-421.3C2248.6,33.5,2215.6,0.5,2175.3,0z"/>
</g>
<path fill="#FFFFFF" d="M2942.6,1803.6c0,277.4-225.1,502.4-502.4,502.4H765.3c-277.4,0-502.4-225.1-502.4-502.4
	s225.1-502.4,502.4-502.4c10.5,0,19.9,2.1,29.8,3.1c68.6-196.3,252.8-338.1,472.6-338.1c30.4,0,59.7,3.7,87.9,8.9
	c114.6-204.1,330.8-343.9,582-343.9c370,0,669.9,299.9,669.9,669.9c0,9.9-2.6,19.9-3.1,29.8
	C2801.3,1399,2942.6,1583.7,2942.6,1803.6z"/>
<g>
	<g>
		<path fill="#038FBD" d="M1534.2,1957.4c-13.6,9.9-27.2,19.9-40.3,29.8c-7.3,5.8-14.1,13.1-23.6,21.5c1-6.3,1.6-9.9,2.1-13.6
			c-1-0.5-1.6-1.6-2.6-2.1c-25.1,19.9-49.7,39.3-74.8,59.1c-1-1-2.1-2.6-3.1-3.7c3.7-2.6,6.8-5.8,10.5-7.9
			c38.7-28.3,78-57,116.7-85.3c8.4-5.8,16.7-11.5,24.6-17.8c3.1-2.6,5.2-7.3,7.9-11c-1-1-2.1-1.6-3.1-2.6
			c-24.6,19.4-48.7,38.7-73.3,57.6c-13.6,10.5-28.3,20.4-42.4,30.4c-1.6,1-4.2,2.6-4.7,2.1c-12.6-9.9-17.8,4.2-25.1,8.9
			c-13.1,8.4-24.6,18.3-36.6,27.7c-7.3,5.8-14.1,11-21.5,16.7c-1.6-1.6-4.2-4.2-6.8-6.8c12.6-13.1,26.2-27.2,39.8-41.3
			c-38.2,20.4-57,67.5-104.2,74.3c-1-2.1-2.6-3.7-3.7-5.8c6.3-3.7,12.6-6.8,18.8-10.5c8.4-4.7,18.3-7.3,25.6-13.6
			c11-8.9,20.9-19.4,30.4-29.8c3.7-4.2,4.7-9.9,6.8-15.2c-1.6-1-2.6-1.6-4.2-2.6c5.2-3.1,10.5-6.3,17.8-10.5
			c-4.7,6.8-7.9,11.5-11,16.2c0.5,0.5,1.6,1,2.1,1.6c40.3-41.9,80.6-83.7,120.4-125.1c-1-1.6-2.1-2.6-3.7-4.2
			c-24.1,17.8-48.2,36.1-72.7,53.9c-17.8,13.1-37.2,24.1-55,37.2c-11.5,8.4-20.9,19.4-32.4,28.8c-13.6,11.5-27.7,22-42.4,32.4
			c46.6-65.9,114.1-108.9,176.9-157c-0.5-1-1-2.1-1.6-3.1c-9.9,6.3-20.4,12-30.4,19.4c-9.9,7.3-19.4,15.2-29.3,23
			c-9.9,7.9-20.4,15.7-31.4,25.1c0-3.1,0-5.2-0.5-11.5c-56,48.7-109.9,95.8-164.9,143.9c-7.3-0.5-16.7-1.6-29.8-3.1
			c7.3-7.9,11-12,14.7-16.7c-0.5-0.5-1-1-1.6-1.6c-11,5.8-22,12-32.4,17.8c7.3-44.5,26.7-83.2,60.7-114.1c0,0,1,2.1,3.7,6.8
			c27.2-38.7,70.7-59.7,96.8-97.9c-1-1.6-2.6-2.6-3.7-4.2c-5.8,4.2-11.5,8.4-21.5,14.7c6.8-12.6,11.5-22,17.8-34
			c-9.9,6.3-17.3,11.5-25.1,16.2c-1-1.6-2.6-3.1-3.7-4.7c16.2-16.2,33-31.9,49.2-48.2c-0.5-0.5-1-1.6-1-2.1
			c-5.8,3.7-12.6,6.8-17.8,11.5c-12,10.5-23.6,21.5-35.6,32.4c-7.9,7.3-12.6,7.3-17.8-0.5c-10.5,9.4-20.9,19.4-31.4,28.8
			c-9.9,8.4-20.9,16.2-30.4,25.1c-5.8,5.2-8.9,13.6-14.1,19.4c-2.6,3.1-10.5,5.8-11,4.7c-9.4-12-18.8-9.9-29.3-1
			c1.6-2.1,3.7-4.2,5.2-5.8c6.3-5.8,11.5-11.5,7.3-21.5c-4.7-9.4,0.5-15.2,9.9-17.3c2.6-0.5,5.2-2.1,9.4-4.2
			c-2.6,4.7-4.2,8.4-6.3,12c0.5,0.5,1,0.5,1.6,1c11.5-9.9,22.5-19.9,34-29.8c-1-1-1.6-1.6-2.6-2.6c-5.2,4.2-9.9,7.9-15.2,11.5
			c-9.9,7.3-15.2,4.2-19.4-6.8c-1-3.7-8.9-7.9-12.6-6.8c-8.9,2.6-17.3,8.4-27.2,13.1c18.8-19.9,45-31.4,54.4-60.2
			c-2.1-0.5-4.2-1-6.3-1.6c-1.6,0-3.7,0-6.3,0c3.1-4.7,5.8-8.9,8.4-12.6c-0.5-0.5-1-1-1.6-1.6c-5.8,4.2-11,8.9-16.7,13.1
			c-0.5-0.5-0.5-0.5-1-1c5.8-6.8,12-14.1,17.8-20.9c-1-1-2.6-2.1-3.7-3.1c-9.9,11-19.9,22-30.9,33.5c-1-4.2-2.1-6.8-3.7-11
			c-8.4,2.6-16.7,5.8-26.7,8.9c30.4-46.6,63.3-89.5,109.4-120.9c-1-1-2.1-2.1-3.1-3.7c-12,10.5-23,20.9-35.6,30.4
			c-11.5,8.4-24.1,15.7-36.1,23.6h0.5c-6.3-5.8-4.7-7.3,3.1-13.6c16.7-12.6,32.4-26.7,48.7-40.3c1-1,1.6-3.1,2.6-5.8
			c-3.7-0.5-6.3-1-10.5-1.6c8.4-7.9,15.7-14.7,25.1-24.1c-5.8,0-8.9,0.5-15.2,0.5c7.3-7.3,13.6-13.1,19.9-19.4
			c-3.7-3.7-6.8-6.8-11-11c-5.8,4.7-14.1,11-22,17.3c-0.5-0.5-1-1-1.6-1.6c15.7-12.6,31.9-25.1,47.6-37.7c5.2-4.2,16.7-5.8,9.4-17.3
			c-0.5-0.5,1-2.6,2.1-3.7c14.7-16.2,26.7-37.7,45-47.1c28.8-15.2,50.2-38.2,75.4-58.1c15.2-12,28.8-25.1,43.4-38.2
			c-2.1-2.1-4.7-4.2-7.9-7.9c16.2-11,31.9-20.9,47.1-31.9c5.2-4.2,8.4-11.5,13.6-16.2c2.6-2.6,6.3-3.1,9.9-4.2c3.1-1,6.8-1,8.9-2.6
			c13.6-9.4,26.7-19.4,39.8-29.3c58.6-44.5,117.2-89.5,176.4-134c22-16.7,44.5-31.9,67-48.2c1.6-1,3.1-2.6,3.7-5.2
			c-11,3.7-21.5,7.9-32.4,11.5c-0.5-1-1-2.6-1.6-3.7c4.2-3.1,8.4-6.8,13.6-10.5c-2.1-2.6-4.2-4.2-6.3-6.3
			c39.3-37.7,75.4-60.2,114.1-72.2c-3.7,8.9,9.9,20.4-6.8,27.7c17.8-5.8,34-11,47.6-23.6c11-10.5,24.1-19.9,38.2-25.6
			c27.2-10.5,46.1-31.4,68-47.6c19.9-14.7,39.3-30.4,59.1-45.5c0.5,1,1.6,2.1,2.1,2.6c-33,26.2-65.9,52.3-101,80.1
			c34,2.6,48.7-25.6,73.3-37.2c-0.5,1.6-1,3.7-2.1,9.4c26.2-16.7,49.2-33.5,73.8-47.1c24.6-13.1,51.3-23,78-32.4
			c-35.6,23-74.3,41.9-100,79c18.8-9.9,37.2-19.4,54.4-28.8c6.3,0,12,1,17.3-0.5c5.8-1.6,11-5.2,17.8-5.2c-3.7,3.1-7.9,6.3-11.5,8.9
			c19.4,11.5-7.9,15.7-1,26.7c15.7-7.3,31.9-15.2,47.1-23c-3.7,4.2-8.9,9.9-14.1,15.7c0.5,0.5,0.5,1.6,1,2.1
			c20.9-7.9,41.9-16.2,61.2-23.6c-43.4,35.1-93.7,67-123,119.9c16.2-6.3,36.1-4.2,46.1-24.1c0,3.7,0.5,7.3,0.5,11.5
			c11-3.7,22.5-6.8,33.5-10.5c0.5,1,1,2.1,1.6,3.1c-16.2,11.5-32.4,23.6-48.7,35.1c0,0.5,0.5,1.6,0.5,2.1c6.3-2.6,12.6-5.8,18.8-8.4
			c0.5,1,1,2.1,1.6,2.6c-15.2,9.4-29.8,18.8-45,27.7c0.5,1,1,2.6,1.6,3.7c8.9-3.1,17.8-5.8,26.2-9.4c8.9-4.2,17.3-9.4,26.2-14.7
			c1,1,2.1,1.6,2.6,2.6c-4.2,4.2-7.9,9.4-12,13.1c-13.6,11.5-27.7,22-41.9,33c1,1,1.6,2.1,2.6,3.1c16.2-7.9,32.4-16.2,49.2-24.1
			c0,0.5,0.5,0.5,0.5,1c-15.2,10.5-30.9,20.9-46.1,31.9c0.5,0.5,1,1,1.6,1.6c14.1-5.8,29.3-9.4,41.9-17.3c12.6-7.9,23-20.4,34-30.9
			c1,1,2.1,2.6,3.7,3.7c-14.7,12.6-28.8,25.1-46.1,39.8c7.9-0.5,11.5-1,17.3-1.6c-3.1,7.3-5.2,13.1-7.9,19.9
			c15.2-12,28.8-23,42.9-34c0,0.5,0.5,0.5,0.5,1c-7.3,8.4-14.1,16.7-21.5,24.6c0.5,0,1,0.5,1.6,0.5c-18.3,14.7-36.6,28.8-55,43.4
			c-0.5-0.5-1-1-1-1.6c3.7-3.7,7.3-7.3,11-10.5c-0.5-0.5-1-1-1-1.6c-9.9,7.9-20.4,16.2-30.4,24.1c0,0.5,0.5,1,0.5,1.6
			c3.1-1,6.3-2.1,12.6-3.7c-15.2,14.7-27.7,27.2-40.8,39.3c0.5,1,1.6,2.1,2.1,3.1c3.7-1.6,7.3-3.1,10.5-5.2
			c34.5-27.2,69.1-55,104.2-81.6c20.4-15.7,42.4-29.8,64.4-45.5c1.6,15.2-8.4,18.8-16.7,23c-11,6.3-19.4,13.6-21.5,30.9
			c9.9-6.8,17.3-11.5,25.1-16.2c9.4-5.8,18.3-11.5,30.9-13.6c13.1-2.1,24.6-16.2,36.6-25.1c4.7-3.7,8.4-8.4,12.6-12.6
			c1,0.5,2.1,1.6,2.6,2.1c-9.9,13.1-18.8,27.7-29.8,39.8c-31.9,33.5-64.9,65.9-97.3,98.9c-6.8,6.8-11,16.7-17.8,27.2
			c5.8-2.6,9.4-4.7,14.7-6.8c-0.5,2.6-1.6,4.7-2.6,9.4c9.4-7.3,17.8-13.6,25.6-20.4c1,1,2.1,2.1,3.1,3.1
			c-24.6,28.8-49.2,57.6-74.8,87.9c25.1-8.9,48.7-17.8,70.7-25.6c-3.7,4.2-8.9,9.4-16.7,17.3c5.2-1.6,7.9-2.1,9.4-2.6
			c-14.1,15.2-28.8,30.4-43.4,46.1c1,1,2.6,2.6,3.7,3.7c5.2-3.7,10.5-7.3,15.7-10.5c1,1,2.1,1.6,3.1,2.6c-6.3,7.9-11.5,16.2-18.3,23
			c-17.8,17.8-35.6,35.1-54.4,51.3c-16.7,14.7-34.5,28.3-51.3,42.9c-16.2,14.1-34.5,26.7-46.6,44c-21.5,29.8-53.4,46.1-79,69.6
			c-11,10.5-25.6,19.4-31.9,32.4c-7.9,16.2-21.5,25.6-32.4,38.2c-4.2,5.2-9.9,8.4-3.1,15.7c1,1.6,0,6.8-1.6,9.4
			c-24.1,28.8-48.7,57.6-72.7,86.4c-11.5,14.1-27.2,20.9-42.9,29.3c-11.5,6.3-28.3,3.1-36.1,20.4c-4.2,8.9-17.3,14.1-26.2,21.5
			c-5.2,4.2-9.4,9.4-15.2,15.7c2.1-4.2,3.7-7.3,4.7-9.9c-0.5-0.5-1-1.6-1.6-2.1c-3.1,2.1-6.3,4.2-9.9,6.8c0-2.6,0-5.8-0.5-11.5
			c-10.5,7.3-19.4,13.6-25.6,18.3c2.6-8.9,5.8-19.9,8.9-32.4c-12,7.3-22,13.6-31.9,19.9c-1-1-2.1-2.1-3.1-3.1
			c6.3-8.9,12.6-17.8,18.3-26.7c-0.5-0.5-1-1-1.6-2.1c-5.2,4.2-9.9,9.9-15.7,12c-25.6,7.9-41.3,28.3-60.7,44.5
			c-25.6,21.5-53.4,41.3-80.6,61.2c-10.5,7.9-22,15.2-35.1,20.4c22-23.6,44-47.6,65.9-71.2c0.5,1.6,1.6,3.7,2.1,4.7
			c19.4-18.3,50.2-19.4,63.9-45.5c-12-2.1-19.9,5.2-27.2,12c-4.7,4.2-9.4,8.4-14.1,12C1550.4,1946.4,1542,1951.7,1534.2,1957.4z
			 M1523.7,1362.9c-6.3-1-11.5-4.2-14.1-2.6c-11,5.8-25.6,11-31.9,20.4c-12,18.3-30.9,27.7-46.6,41.9c-3.1,2.6-7.3,5.2-8.9,8.4
			c-6.8,17.8-24.1,24.1-37.2,34.5c-23,18.3-46.1,36.6-69.1,55c1,1.6,2.6,3.1,3.7,4.7c80.1-45,151.3-102.6,215.1-168.5
			C1530.5,1359.2,1525.8,1361.8,1523.7,1362.9z M1185.6,1758.5c-0.5-1-1-2.1-2.1-3.1c-19.9,6.8-44,27.2-44.5,39.8
			C1155.3,1782.1,1170.4,1770.6,1185.6,1758.5z M1312.8,1529.8c-1-1-2.1-2.1-2.6-3.1c-22,20.4-44.5,41.3-66.5,61.8
			c1,1,2.1,2.6,3.7,3.7C1266.2,1568,1297.1,1557,1312.8,1529.8z M1453.1,1952.7c-0.5-0.5-1-1-1.6-1.6
			c-13.6,10.5-26.7,21.5-40.3,31.9c0.5,0.5,1,1,1.6,1.6C1425.8,1973.7,1439.4,1963.2,1453.1,1952.7z M1568.7,1892
			c-0.5-0.5-1-1.6-1-2.1c-14.1,11-28.3,22-41.9,33c0.5,0.5,1,1,1.6,2.1C1541,1914,1554.6,1903,1568.7,1892z M1605.9,1893.1
			c-22,4.2-30.4,11.5-29.3,23C1585.5,1909.3,1593.8,1902,1605.9,1893.1z M1216,1984.6c-19.4-5.8-25.6-2.6-31.4,13.1
			C1195,1993.5,1203.9,1989.9,1216,1984.6z M2163.3,1412.6c-0.5-1-1.6-1.6-2.1-2.6c-12,11-24.6,22-36.6,33c0.5,0.5,1,1,1.6,2.1
			C2138.7,1434.1,2151.2,1423.1,2163.3,1412.6z"/>
		<path fill="#038FBD" d="M1972.2,1729.2c0.5-3.1,1.6-6.3,2.6-11.5c-14.1,8.4-27.2,14.7-38.2,23.6c-7.9,6.8-12,17.8-18.8,28.3
			c3.7-0.5,5.8-0.5,7.9-1c0.5,0.5,1,1,1.6,2.1c-11.5,8.9-22.5,17.8-34,26.7c-1-1-2.1-1.6-3.1-2.6c5.8-8.4,12-16.2,17.8-24.6
			c5.2-7.9,9.9-16.2,15.7-24.1c7.3-10.5,14.1-21.5,23-30.4c8.9-8.9,20.4-15.7,30.9-23.6c1-1,2.1-2.1,3.1-2.1
			c22,1,40.3-13.1,60.7-17.8c3.7,6.8,6.8,13.1,9.9,19.4c-7.9-1.6-15.7-13.1-18.3,4.2c-0.5,2.1-8.4,2.1-12,4.2
			C2004.7,1709.4,1989,1719.3,1972.2,1729.2z"/>
		<path fill="#038FBD" d="M1512.7,1329.4c-8.9,6.3-17.8,12-26.2,18.8c-7.9,6.3-13.6,15.2-21.5,21.5c-17.3,13.6-36.1,25.1-53.4,38.7
			c-12,9.4-23,20.9-34,31.4c-4.7,4.7-6.3,11-16.7,6.3c-5.8-2.1-16.2,7.9-27.7,14.1c9.4-8.9,15.7-16.2,22.5-22
			c45-36.1,90.5-72.2,136.1-108.3c4.7-3.7,11.5-4.7,17.8-7.3C1511.2,1325.2,1512.2,1327.3,1512.7,1329.4z"/>
		<path fill="#038FBD" d="M1239,1535.6c28.3-22.5,56.5-44.5,84.8-67c0.5,0.5,1,1,1.6,1.6c-28.3,22.5-56.5,44.5-84.8,67
			C1239.5,1536.6,1239,1536.1,1239,1535.6z"/>
		<path fill="#038FBD" d="M1175.1,1941.2c17.8-19.4,35.1-38.7,52.9-58.1c1,1,2.6,2.1,3.7,3.1c-17.3,19.4-35.1,38.7-52.3,58.6
			C1178.3,1943.8,1176.7,1942.3,1175.1,1941.2z"/>
		<path fill="#038FBD" d="M1648.8,1195.9c18.3-14.7,37.2-29.3,55.5-44c0.5,0.5,0.5,1,1,1c-18.3,14.7-37.2,29.3-55.5,44
			C1649.3,1196.4,1649.3,1195.9,1648.8,1195.9z"/>
		<path fill="#038FBD" d="M1130.7,1751.2c-9.4,11-18.3,22.5-27.7,33.5C1104.5,1766.4,1110.2,1751.7,1130.7,1751.2L1130.7,1751.2z"/>
		<path fill="#038FBD" d="M2260.6,940.5c-28.3,22.5-57,45-85.3,67.5c-0.5-0.5-1-1-1-1.6c28.3-22.5,57-45,85.3-67.5
			C2259.6,939.5,2260.1,940,2260.6,940.5z"/>
		<path fill="#038FBD" d="M2236.6,1111.1c-9.4,5.2-18.8,10.5-28.3,15.2c-0.5-1-1.6-2.6-2.1-3.7c8.9-5.8,18.3-11.5,27.2-17.3
			C2234.5,1107.5,2235.5,1109.6,2236.6,1111.1z"/>
		<path fill="#038FBD" d="M2131.9,1705.2c-0.5,0.5-1,1.6-1.6,2.1c0,0-0.5,0-1,0c0-0.5,0-1.6,0.5-1.6
			C2130.3,1705.2,2130.8,1705.2,2131.9,1705.2z"/>
	</g>
</g>
<g>
	<g>
		<path fill="#020202" d="M2605,1330.4c0.5-9.9,3.1-19.9,3.1-29.8c0-370-299.9-669.9-669.9-669.9c-250.7,0-466.9,139.7-582,343.9
			c-28.8-5.2-58.1-8.9-87.9-8.9c-219.3,0-404,141.8-472.6,338.1c-9.9-0.5-19.9-3.1-29.8-3.1c-277.4,0-502.4,225.1-502.4,502.4
			s225.1,502.4,502.4,502.4h1674.8c277.4,0,502.4-225.1,502.4-502.4C2942.6,1583.7,2801.3,1399,2605,1330.4z M2440.1,2138.5H765.3
			c-184.8,0-335-150.2-335-335c0-182.7,147.6-331.8,329.7-335c7.9,1,16.2,2.1,24.1,2.6l127.2,8.4l41.9-120.4
			c47.1-135,173.2-225.6,314.5-225.6c16.2,0,34.5,2.1,58.6,6.3l117.2,20.9l58.6-103.6c89.5-159.1,256.5-258.5,436-258.5
			c275.3,0,499.3,221.9,502.4,496.2c-1.6,9.9-2.1,20.4-2.6,30.9l-4.2,123l116.7,40.8c135,47.1,225.6,173.2,225.6,314.5
			C2775.1,1988.3,2624.9,2138.5,2440.1,2138.5z"/>
	</g>
	<path fill="#020202" d="M1899.5,1657c6.3-12,12-24.6,17.8-37.2c-32.4-48.7-90.5-78-152.3-69.1c-9.4,1.6-18.3,3.7-27.2,6.8
		c-44.5-58.6-117.8-92.6-195.7-81.6c-115.1,16.2-195.2,122.5-179,237.1v0.5c19.4,7.3,38.7,15.2,58.1,23l-4.2-23.6
		c-0.5-3.1-1-6.3-2.1-9.4c-11-85.3,49.2-164.3,134.5-175.9c55.5-7.9,112,15.7,146.5,61.2l22.5,29.8l35.6-11.5
		c7.3-2.6,13.1-3.7,17.8-4.7c44-6.3,86.9,16.7,107.3,56.5l9.4,18.3C1892.2,1670.6,1895.8,1663.8,1899.5,1657z"/>
</g>
<g>
	<path fill="#797979" d="M2630.7,703.4l-16.2,244.9c-20.9,15.7-41.3,31.4-61.8,46.6c-32.4,23.6-63.9,46.1-93.7,66.5
		c-14.7,9.9-28.8,19.9-42.9,28.8c2.6,24.1,1,48.2-4.7,71.7l-278.4-18.3l13.1-199.9c39.8-17.3,84.8-22.5,127.7-12.6
		c0.5-0.5,1-1,1-1.6c22-27.2,46.6-56,72.7-86.4c42.4-48.7,89.5-100,137.6-149.2L2630.7,703.4z"/>
	<path fill="#664921" d="M2397.8,873c-29.8,34-53.9,62.3-69.1,80.6c13.1,7.9,25.1,17.8,35.6,28.8c14.1,15.2,26.2,32.4,34.5,50.2
		c15.2-10.5,37.2-25.1,63.3-44c0.5,0,0.5-0.5,1-0.5l-4.7,73.3c-14.7,9.9-28.8,19.9-42.9,28.8c2.6,24.1,1,48.2-4.7,71.7
		c-10.5,44.5-35.1,85.8-68,116.2c-82.2,75.9-248.6,99.4-373.2,35.6c-17.8-8.9-20.9-33-6.3-46.6c83.7-77.5,20.4-174.8,110.4-273.2
		c19.9-22,44.5-38.7,71.7-50.8c39.8-17.3,84.8-22.5,127.7-12.6c0.5-0.5,1-1,1-1.6c22-27.2,46.6-56,72.7-86.4l106.2,7.3l16.7,19.4
		l-5.2,80.6L2397.8,873z"/>
	<path fill="#2F7DA7" d="M2981.8,539.1c-5.8,48.7-40.3,106.8-104.7,177.4c-68,74.8-165.4,157-263.3,231.9
		c-20.9,15.7-41.3,31.4-61.8,46.6l-90-5.8c0.5,0,0.5-0.5,1-0.5c6.8-5.2,14.7-10.5,22-15.7l-19.4-22.5l-68-77.5
		c-29.8,34-53.9,62.3-69.1,80.6c13.1,7.9,25.1,17.8,35.6,28.8l-92.6-6.3l3.1-46.6c22-27.2,46.6-56,72.7-86.4
		c42.4-48.7,89.5-100,137.6-149.2c68-69.1,138.2-134.5,202-182.1c76.4-57,137.6-85.8,186.8-87.9
		C2942.1,421.3,2989.7,473.7,2981.8,539.1z"/>
	<path fill="#020202" d="M2874.6,423.9c-49.2,2.1-110.4,30.4-186.8,87.9c-63.9,48.2-134.5,113-202,182.1
		c-48.2,49.2-95.3,100.5-137.6,149.2c-26.2,30.4-50.8,59.1-72.7,86.4c-0.5,0.5-1,1-1,1.6c-42.9-9.4-87.9-4.2-127.7,12.6
		c-27.2,11.5-51.8,28.8-71.7,50.8c-90,98.4-26.7,195.7-110.4,273.2c-14.7,13.6-11.5,37.7,6.3,46.6c124.6,63.3,291,40.3,373.2-35.6
		c33-30.4,57.6-71.7,68-116.2c5.8-23.6,7.3-47.6,4.7-71.7c13.6-9.4,28.3-18.8,42.9-28.8c29.8-20.4,61.8-42.9,93.7-66.5
		c20.4-15.2,41.3-30.4,61.8-46.6c97.9-74.8,194.7-157,263.3-231.9c64.4-70.7,98.9-128.8,104.7-177.4
		C2989.7,473.7,2942.1,421.3,2874.6,423.9z M2304.1,1236.2c-55.5,51.3-172.7,75.9-273.7,41.3c63.3-87.4,19.4-172.7,85.3-244.9
		c7.3-8.4,16.2-15.7,25.1-22c56.5-38.7,138.2-39.3,184.8,14.1c36.6,41.9,39.3,90.5,26.7,132.9
		C2342.8,1189.6,2324.5,1217.9,2304.1,1236.2z M2398.8,1033.1c-8.4-18.3-20.4-35.1-34.5-50.2c-10.5-11-22.5-20.9-35.6-28.8
		c15.2-18.3,39.3-46.6,69.1-80.6l68,77.5l19.4,22.5c-7.9,5.2-15.2,11-22,15.7c-0.5,0-0.5,0.5-1,0.5
		C2436,1007.5,2414.5,1022.7,2398.8,1033.1z M2925.3,532.3c-11,92.6-184.2,243.9-306.2,340.2c-35.1,27.7-65.9,50.8-87.4,67
		l-95.3-108.9c27.2-30.4,72.2-79,125.1-130.8c103.6-102.1,235.5-215.1,315.6-217.7C2909.1,479.9,2929,501.4,2925.3,532.3z"/>
	<path fill="none" stroke="#010101" stroke-width="3" stroke-miterlimit="10" d="M2149.1,1198.5c16.2,1.6,32.4-2.6,46.1-11.5
		c17.8-12,28.8-31.4,39.3-49.7"/>
</g>
</svg>
